<svg version="1.1" id="Layer_1" xmlns="http://www.w3.org/2000/svg" xmlns:xlink="http://www.w3.org/1999/xlink" x="0px" y="0px"
	 width="1253.211px" height="5971.229px" viewBox="0 0 1253.211 5971.229" enable-background="new 0 0 1253.211 5971.229"
	 xml:space="preserve">
<g id="Group_116" transform="translate(-730.698 -554.157)">
	<g id="Group_92" transform="translate(0 367)">
		<g id="Group_88" transform="translate(0 -6)">
			<path id="Path_164" fill="#F4F4F4" d="M776.979,5565.847v-270.398c-0.16-0.559,1.545-0.188,1.143,0h502.5l0,0h167.112
				c92.715,0,117.232-1.846,117.502,0l0,0c2.225-1.793-1.479,269.75,0,270.4H776.979V5565.847z"/>
			<path id="Path_163" fill="#F9F9FA" d="M1785.968,5431.347c0.236,73.816-59.411,133.854-133.229,134.092
				c-0.287,0.002-0.574,0.002-0.859,0h-269.1c74.393,0,134.09-60.625,134.09-134.092v-269.104
				c0-74.385,60.617-134.086,134.092-134.086h134.091v403.188L1785.968,5431.347L1785.968,5431.347z"/>
		</g>
	</g>
	<g id="Group_94" transform="translate(730.698 3122.92)">
		<path id="Path_169" fill="#F9F9FA" d="M315.513,1184.518c-149.031,0-269.545-120.637-269.545-269.814V636.001H180.28
			c74.515,0,134.312,60.775,134.312,134.447v9.811c0.044,1.82,0.403,3.617,1.063,5.314
			C315.655,873.323,318.503,1182.362,315.513,1184.518z"/>
		<path id="Path_170" fill="#F4F4F4" d="M1274.969,1174.7C1275.553,1175.038,1273.842,1175.352,1274.969,1174.7L1274.969,1174.7
			c0,149.178,0.683,268.275,0,269.814H315.513c-149.031,0-269.545-120.639-269.545-269.814V896.001H180.28
			c74.515,0,134.312,60.775,134.312,134.447v9.811c0,74.588,60.716,134.445,134.313,134.445h826.064L1274.969,1174.7
			L1274.969,1174.7z"/>
	</g>
	<g id="Group_99" transform="translate(0 -1261)">
		<path id="Path_154" fill="#F9F9FA" d="M1131.975,3879.691h134.093v161.248c0,74.209,60.615,133.761,134.091,133.761l583.188-0.917
			c-0.78,1.353-1.321,0.917,0,0.917v267.527h-717.277c-148.787,0-269.101-120.023-269.101-268.444v-161.247
			C996.968,3940.159,1057.584,3879.691,1131.975,3879.691z"/>
		
			<linearGradient id="Path_161_1_" gradientUnits="userSpaceOnUse" x1="3040.6257" y1="4843.9316" x2="3041.6787" y2="4843.9316" gradientTransform="matrix(3.284246e-014 -536.358 -986.376 -6.039811e-014 4779429.5 1635304.5)">
			<stop  offset="0" style="stop-color:#F4F4F4"/>
			<stop  offset="0.382" style="stop-color:#F4F4F4"/>
			<stop  offset="1" style="stop-color:#1D1D1B"/>
		</linearGradient>
		<path id="Path_161" opacity="0.02" fill="url(#Path_161_1_)" enable-background="new    " d="M1131.975,3902.393h134.093v134.087
			c0,74.392,60.615,134.091,134.091,134.091h583.186c-0.338,1.126,0,60.617,0,134.092v134.088h-717.275
			c-148.787,0-269.101-120.313-269.101-269.102v-134.088C996.968,3963.005,1057.584,3902.393,1131.975,3902.393z"/>
		<path id="Path_162" fill="#F9F9FA" d="M1995.407,3637.227L1995.407,3637.227c0,74.391-1.246,269.1,0,269.1h-729.341l0,0h-134.091
			c-74.391,0.001-134.089,60.617-134.089,134.091v-134.09c0-148.783,120.313-269.1,269.101-269.1L1995.407,3637.227
			C1995.741,3638.304,1995.407,3710.702,1995.407,3637.227z"/>
	</g>
	<g id="Group_89">
		<path id="Path_148" fill="#F4F4F4" d="M1984.79,1727.845v-270.399c0.199-0.56-1.936-0.188-1.432,0H1354.23l0,0h-209.231
			c-116.081,0-146.776-1.849-147.116,0l0,0c-2.783-1.793,1.851,269.749,0,270.399H1984.79z"/>
		<path id="Path_149" fill="#F9F9FA" d="M776.968,1593.343c-0.238,73.82,59.412,133.855,133.231,134.096
			c0.287,0.001,0.572,0.001,0.859,0h269.1c-74.394,0-134.09-60.625-134.09-134.096v-269.1c0-74.389-60.616-134.086-134.09-134.086
			H777.885v403.186H776.968z"/>
	</g>
</g>
</svg>
