<svg id="Layer_1" data-name="Layer 1" xmlns="http://www.w3.org/2000/svg" width="78.66" height="30" viewBox="0 0 78.66 30">
  <defs>
    <style>
      .cls-1 {
        fill: #0090d7;
      }

      .cls-2 {
        fill: #ba2c87;
      }
    </style>
  </defs>
  <g>
    <path class="cls-1" d="M10.45,0H0V26.17H10.45A5.23,5.23,0,0,0,15.72,21V5.25A5.25,5.25,0,0,0,10.48,0h0M5.22,21V5.25H7.85a2.59,2.59,0,0,1,2.6,2.6V18.36A2.61,2.61,0,0,1,7.84,21Z"/>
    <path class="cls-1" d="M73.42,26.17V2.62A2.61,2.61,0,0,1,76,0h2.63V23.61a2.62,2.62,0,0,1-2.61,2.62H73.42Z"/>
    <path class="cls-1" d="M51,14.27a9.05,9.05,0,0,1-4.38,2.42,2.62,2.62,0,1,1-4.64,1.67V16.91H36.69v6.7a2.64,2.64,0,0,0,2.64,2.56h5.23A7.87,7.87,0,0,0,51.16,14l-.2.2"/>
    <path class="cls-1" d="M41.94,7.87a2.64,2.64,0,0,1,1.45-2.36V0h-6.7V9.31h5.24Z"/>
    <path class="cls-1" d="M23.58,10.36V0H21a2.62,2.62,0,0,0-2.63,2.6v0h0V9.33H21a3.7,3.7,0,0,1,2.62,1"/>
    <path class="cls-1" d="M34.08,9.31V2.62A2.64,2.64,0,0,0,31.45,0H28.83V10.36a3.75,3.75,0,0,1,2.62-1Z"/>
    <path class="cls-1" d="M55.1,26.17h2.61a2.62,2.62,0,0,0,2.63-2.62h0V16.91H55.1Z"/>
    <path class="cls-1" d="M60.3,9.31V6.42h0V2.62A3.79,3.79,0,0,1,61.35,0H60.3a5.25,5.25,0,0,0-5.2,5.25v5.11a3.74,3.74,0,0,1,2.61-1Z"/>
    <path class="cls-1" d="M65.63,16.91h-.08v6.7a2.63,2.63,0,0,0,2.62,2.63h2.62v-12A6.37,6.37,0,0,1,65.63,17"/>
    <path class="cls-2" d="M44.56,0V5.25a2.63,2.63,0,0,1,.22,5.25H31.45a2.61,2.61,0,0,0-2.62,2.61V21H26.17a2.62,2.62,0,0,1-2.62-2.62h0V13.11a2.61,2.61,0,0,0-2.61-2.61H18.33V21a5.25,5.25,0,0,0,5.25,5.19h5.25a5.25,5.25,0,0,0,5.25-5.25V15.69H44.56A7.88,7.88,0,0,0,44.93,0h-.37"/>
    <path class="cls-2" d="M43.14,16.87h0v1.45a1.38,1.38,0,0,0,1.38,1.38A1.46,1.46,0,0,0,46,18.32a1.38,1.38,0,0,0-1.3-1.45H43.14Z"/>
    <path class="cls-2" d="M26.63,27.25h0v1.37A1.38,1.38,0,1,0,28,27.25Z"/>
    <path class="cls-2" d="M22.75,27.25h0v1.37a1.38,1.38,0,1,0,1.38-1.37Z"/>
    <path class="cls-2" d="M55.1,13.11a2.61,2.61,0,0,1,2.61-2.61H63a2.63,2.63,0,1,0,.38-5.25H61.58V2.62A2.62,2.62,0,0,1,64.1,0h1.45a5.24,5.24,0,0,1,5.24,5.23v0h0V10.5a5.25,5.25,0,0,1-5.24,5.24H55.1Z"/>
  </g>
</svg>
