<svg xmlns="http://www.w3.org/2000/svg" width="20" height="18" viewBox="0 0 20 18" class="fav-heart-filled icon-nav-bar s5ennsy"><svg version="1.1" x="0px" y="0px" width="17.997px" height="16px" viewBox="6.002 4 17.997 16" enable-background="new 6.002 4 17.997 16"><g transform="matrix(1, 0, 0, 1, 0, 0)"><path fill="#0090D7" d="M13.376,6.9l9.118-1.42c-2.023-1.973-5.251-1.973-7.274,0L15,5.7l-0.22-0.22&#10; c-2.022-1.973-5.25-1.973-7.273,0c-1.975,1.93-2.011,5.096-0.081,7.071c0.027,0.027,0.054,0.054,0.081,0.081L15,20l7.494-7.368&#10; c1.975-1.93,2.012-5.096,0.081-7.07c-0.026-0.027-0.054-0.055-0.081-0.082"/></g></svg></svg>